<?xml version="1.0" standalone="no"?>
<svg
  width="600"
  height="600"
  viewBox="0 0 600 600"
  xmlns="http://www.w3.org/2000/svg"
>
  <g transform="translate(300,300)">
    <path d="M120,-146.4C146,-146.3,151,-98.5,151.3,-58.4C151.5,-18.3,147.1,14,128.2,32.2C109.2,50.3,75.8,54.3,52,69.2C28.2,84.2,14.1,110.1,-11.1,125.3C-36.2,140.6,-72.5,145.1,-119.4,137.7C-166.3,130.3,-223.9,110.9,-237.7,75.6C-251.4,40.3,-221.3,-10.9,-188.9,-46.1C-156.4,-81.3,-121.7,-100.5,-89.9,-98.7C-58,-96.8,-29,-73.9,9,-86.3C47,-98.7,94,-146.4,120,-146.4Z" fill="#ffc105" />
  </g>
</svg>
  